<?xml version="1.0" encoding="utf-8"?>
<!-- Generator: Adobe Illustrator 26.0.0, SVG Export Plug-In . SVG Version: 6.00 Build 0)  -->
<svg version="1.1" id="Layer_1" xmlns="http://www.w3.org/2000/svg" xmlns:xlink="http://www.w3.org/1999/xlink" x="0px" y="0px"
	 viewBox="0 0 1080 1080" style="enable-background:new 0 0 1080 1080;" xml:space="preserve">
<style type="text/css">
	
		.st0{clip-path:url(#SVGID_00000138543088010787550880000003815729026053038269_);fill:url(#SVGID_00000016766067436975895100000005141387591659227837_);}
	
		.st1{clip-path:url(#SVGID_00000012465888581141273200000017698009631461792938_);fill:url(#SVGID_00000013871643349571704440000004142672879636255135_);}
	
		.st2{clip-path:url(#SVGID_00000041292983477612785300000005917465203678446990_);fill:url(#SVGID_00000132066300963246440330000001644731641744243882_);}
	
		.st3{clip-path:url(#SVGID_00000114795850631243935670000015348281622100245680_);fill:url(#SVGID_00000096049427549692385060000001766557971961965225_);}
	
		.st4{clip-path:url(#SVGID_00000042699628446966860920000013858847523885969050_);fill:url(#SVGID_00000051382830234753837020000017198092272570487707_);}
	
		.st5{clip-path:url(#SVGID_00000123400179265589143020000007775643091327909035_);fill:url(#SVGID_00000091703282647278563790000003337762910620491918_);}
	
		.st6{clip-path:url(#SVGID_00000183949887731057527140000009040792846019693481_);fill:url(#SVGID_00000150822939096615228600000013001999377004843943_);}
	
		.st7{clip-path:url(#SVGID_00000182489191666822752120000003688874092433142659_);fill:url(#SVGID_00000129907618588859386520000002965816170517768104_);}
	
		.st8{clip-path:url(#SVGID_00000122683911494902957050000000039803127741748148_);fill:url(#SVGID_00000026876555498185728180000013037661595937299097_);}
	
		.st9{clip-path:url(#SVGID_00000098909738941993879610000000585985266876132493_);fill:url(#SVGID_00000180364246280749801080000007650222880331824801_);}
</style>
<g>
	<g>
		<defs>
			<polygon id="SVGID_1_" points="233.15,448.02 258.96,448.02 258.96,556.99 258.96,567.87 233.22,567.87 233.15,567.8 
				148.33,484.31 148.33,567.87 122.51,567.87 122.51,458.9 122.51,448.02 148.26,448.02 148.33,448.09 233.15,531.58 			"/>
		</defs>
		<clipPath id="SVGID_00000028321733309833894300000011811836966183157141_">
			<use xlink:href="#SVGID_1_"  style="overflow:visible;"/>
		</clipPath>
		
			<linearGradient id="SVGID_00000047028854278136999180000002585529006691741056_" gradientUnits="userSpaceOnUse" x1="3.243001e-06" y1="1080" x2="1" y2="1080" gradientTransform="matrix(136.4492 0 0 -136.4492 122.5116 147873.0781)">
			<stop  offset="0" style="stop-color:#FBD8C7"/>
			<stop  offset="1" style="stop-color:#BF7B2A"/>
		</linearGradient>
		
			<rect x="122.51" y="448.02" style="clip-path:url(#SVGID_00000028321733309833894300000011811836966183157141_);fill:url(#SVGID_00000047028854278136999180000002585529006691741056_);" width="136.45" height="119.86"/>
	</g>
	<g>
		<defs>
			<polygon id="SVGID_00000067217472896462686550000011805413290824624265_" points="279.92,567.87 357.76,448.02 386.12,448.02 
				463.96,567.87 433.15,567.87 371.94,473.62 310.73,567.87 			"/>
		</defs>
		<clipPath id="SVGID_00000013172010625216065390000000343983501548833414_">
			<use xlink:href="#SVGID_00000067217472896462686550000011805413290824624265_"  style="overflow:visible;"/>
		</clipPath>
		
			<linearGradient id="SVGID_00000162336287702166454120000010114172701239327627_" gradientUnits="userSpaceOnUse" x1="1.492415e-06" y1="1080" x2="1" y2="1080" gradientTransform="matrix(184.036 0 0 -184.036 279.9227 199266.8438)">
			<stop  offset="0" style="stop-color:#FBD8C7"/>
			<stop  offset="1" style="stop-color:#BF7B2A"/>
		</linearGradient>
		
			<rect x="279.92" y="448.02" style="clip-path:url(#SVGID_00000013172010625216065390000000343983501548833414_);fill:url(#SVGID_00000162336287702166454120000010114172701239327627_);" width="184.04" height="119.86"/>
	</g>
	<g>
		<defs>
			<polygon id="SVGID_00000111891546139759142910000016953508606675469748_" points="510.69,499.62 510.69,567.87 484.88,567.87 
				484.88,454.99 484.88,448.02 510.69,448.02 547.86,512.27 562.78,538.07 577.71,512.27 614.87,448.02 640.69,448.02 
				640.69,454.99 640.69,567.87 614.87,567.87 614.87,499.62 592.63,538.07 577.71,563.87 575.39,567.87 550.17,567.87 
				547.86,563.87 532.93,538.07 			"/>
		</defs>
		<clipPath id="SVGID_00000135666418594313773360000018101274141552929201_">
			<use xlink:href="#SVGID_00000111891546139759142910000016953508606675469748_"  style="overflow:visible;"/>
		</clipPath>
		
			<linearGradient id="SVGID_00000180334129200997683860000002976262500711462060_" gradientUnits="userSpaceOnUse" x1="-3.917230e-07" y1="1080" x2="1" y2="1080" gradientTransform="matrix(155.8124 0 0 -155.8124 484.8761 168785.2969)">
			<stop  offset="0" style="stop-color:#FBD8C7"/>
			<stop  offset="1" style="stop-color:#BF7B2A"/>
		</linearGradient>
		
			<rect x="484.88" y="448.02" style="clip-path:url(#SVGID_00000135666418594313773360000018101274141552929201_);fill:url(#SVGID_00000180334129200997683860000002976262500711462060_);" width="155.81" height="119.85"/>
	</g>
	<g>
		<defs>
			<path id="SVGID_00000161623935625132638690000002011702643905208725_" d="M661.66,448.02h133.22v25.82H661.66V448.02z
				 M661.66,495.04h133.22v25.82H661.66V495.04z M661.66,542.06h133.22v25.82H661.66V542.06z"/>
		</defs>
		<clipPath id="SVGID_00000097467621135530705170000003808308511862156172_">
			<use xlink:href="#SVGID_00000161623935625132638690000002011702643905208725_"  style="overflow:visible;"/>
		</clipPath>
		
			<linearGradient id="SVGID_00000029044206344851622560000007494831477785048751_" gradientUnits="userSpaceOnUse" x1="-2.748850e-06" y1="1080" x2="1" y2="1080" gradientTransform="matrix(133.2234 0 0 -133.2234 661.6643 144389.2031)">
			<stop  offset="0" style="stop-color:#FBD8C7"/>
			<stop  offset="1" style="stop-color:#BF7B2A"/>
		</linearGradient>
		
			<rect x="661.66" y="448.02" style="clip-path:url(#SVGID_00000097467621135530705170000003808308511862156172_);fill:url(#SVGID_00000029044206344851622560000007494831477785048751_);" width="133.22" height="119.86"/>
	</g>
	<g>
		<defs>
			<path id="SVGID_00000074435664737342476620000011802349311738024861_" d="M888.92,448.02h-5.45h-1.77h-6.34h-22.78
				c-20.19,0-36.71,16.52-36.71,36.71c0.03,3.58,0.58,7.04,1.58,10.31c3.54,11.54,12.69,20.69,24.23,24.23
				c3.36,1.03,6.92,1.59,10.6,1.59h24.99h6.19h5.45h2.81h29.34c5.73,0,10.44,4.61,10.6,10.31c0,5.99-4.9,10.89-10.89,10.89h-30.97
				h-0.89h-0.89h-2.49h-1.78h-0.29h-1.77h-29.12h-0.11c-5.94-0.06-10.78-4.94-10.78-10.89v-1.99h-25.82v1.99
				c0,3.79,0.58,7.45,1.66,10.89c4.67,14.92,18.65,25.82,35.05,25.82h29.12h1.77h4.56h0.89h0.89h30.97
				c20.19,0,36.71-16.52,36.71-36.71c-0.03-3.58-0.58-7.04-1.58-10.31c-3.54-11.54-12.69-20.69-24.23-24.23
				c-3.36-1.03-6.92-1.58-10.6-1.58h-29.34h-2.81h-5.45h-6.19H852.3c-5.73-0.01-10.44-4.62-10.6-10.31c0-5.99,4.9-10.89,10.89-10.89
				h22.78h6.34h1.77h5.45h31.86c5.99,0,10.89,4.9,10.89,10.89v1.99h25.82v-1.99c0-3.79-0.58-7.45-1.66-10.89
				c-4.67-14.92-18.65-25.82-35.05-25.82H888.92z"/>
		</defs>
		<clipPath id="SVGID_00000080170117460351714710000002534035321416598947_">
			<use xlink:href="#SVGID_00000074435664737342476620000011802349311738024861_"  style="overflow:visible;"/>
		</clipPath>
		
			<linearGradient id="SVGID_00000085233347977547675090000014085427821204104613_" gradientUnits="userSpaceOnUse" x1="-2.586050e-06" y1="1080" x2="1" y2="1080" gradientTransform="matrix(141.6102 0 0 -141.6102 815.8783 153446.9219)">
			<stop  offset="0" style="stop-color:#FBD8C7"/>
			<stop  offset="1" style="stop-color:#BF7B2A"/>
		</linearGradient>
		
			<rect x="815.88" y="448.02" style="clip-path:url(#SVGID_00000080170117460351714710000002534035321416598947_);fill:url(#SVGID_00000085233347977547675090000014085427821204104613_);" width="141.61" height="119.86"/>
	</g>
	<g>
		<defs>
			<polygon id="SVGID_00000155138274005625903580000013843170847929908913_" points="463.56,597.81 463.56,631.98 487.72,631.98 
				487.72,628.86 467.17,628.86 467.17,616.17 484.84,616.17 484.84,613.09 467.17,613.09 467.17,600.93 486.99,600.93 
				486.99,597.81 			"/>
		</defs>
		<clipPath id="SVGID_00000047060437057726896250000014391942188078610608_">
			<use xlink:href="#SVGID_00000155138274005625903580000013843170847929908913_"  style="overflow:visible;"/>
		</clipPath>
		
			<linearGradient id="SVGID_00000150077188813351343640000005866095094679702431_" gradientUnits="userSpaceOnUse" x1="-9.094947e-13" y1="1080" x2="1" y2="1080" gradientTransform="matrix(24.1648 0 0 -24.1648 463.557 26712.9141)">
			<stop  offset="0" style="stop-color:#FBD8C7"/>
			<stop  offset="1" style="stop-color:#BF7B2A"/>
		</linearGradient>
		
			<rect x="463.56" y="597.81" style="clip-path:url(#SVGID_00000047060437057726896250000014391942188078610608_);fill:url(#SVGID_00000150077188813351343640000005866095094679702431_);" width="24.16" height="34.17"/>
	</g>
	<g>
		<defs>
			<polygon id="SVGID_00000003817236067962124540000008842441867852259251_" points="521.21,597.81 521.21,613.04 499.83,613.04 
				499.83,597.81 496.22,597.81 496.22,631.98 499.83,631.98 499.83,616.21 521.21,616.21 521.21,631.98 524.78,631.98 
				524.78,597.81 			"/>
		</defs>
		<clipPath id="SVGID_00000016049548983446461740000009778854140977093264_">
			<use xlink:href="#SVGID_00000003817236067962124540000008842441867852259251_"  style="overflow:visible;"/>
		</clipPath>
		
			<linearGradient id="SVGID_00000158713424681577379660000016502056747389967284_" gradientUnits="userSpaceOnUse" x1="1.175452e-05" y1="1080" x2="1" y2="1080" gradientTransform="matrix(28.5587 0 0 -28.5587 496.2157 31458.2617)">
			<stop  offset="0" style="stop-color:#FBD8C7"/>
			<stop  offset="1" style="stop-color:#BF7B2A"/>
		</linearGradient>
		
			<rect x="496.22" y="597.81" style="clip-path:url(#SVGID_00000016049548983446461740000009778854140977093264_);fill:url(#SVGID_00000158713424681577379660000016502056747389967284_);" width="28.56" height="34.17"/>
	</g>
	<g>
		<defs>
			<path id="SVGID_00000005248846463255279030000002415759462586725038_" d="M539.52,600.93h10.11c3.03,0,5.65,0.6,7.88,1.78
				c2.23,1.19,3.96,2.82,5.2,4.91c1.24,2.08,1.86,4.51,1.86,7.27c0,2.73-0.62,5.15-1.86,7.25c-1.24,2.1-2.97,3.74-5.2,4.93
				c-2.23,1.19-4.86,1.78-7.88,1.78h-10.11V600.93z M535.91,597.81v34.17h13.91c3.65,0,6.84-0.72,9.59-2.17s4.89-3.46,6.42-6.03
				c1.53-2.57,2.29-5.53,2.29-8.89c0-3.35-0.77-6.31-2.29-8.89c-1.53-2.57-3.67-4.58-6.42-6.03s-5.95-2.17-9.59-2.17H535.91z"/>
		</defs>
		<clipPath id="SVGID_00000175298544099005325030000014264048710188063422_">
			<use xlink:href="#SVGID_00000005248846463255279030000002415759462586725038_"  style="overflow:visible;"/>
		</clipPath>
		
			<linearGradient id="SVGID_00000106114411202528796690000002653954608336613529_" gradientUnits="userSpaceOnUse" x1="0" y1="1080" x2="1" y2="1080" gradientTransform="matrix(32.2201 0 0 -32.2201 535.905 35412.5625)">
			<stop  offset="0" style="stop-color:#FBD8C7"/>
			<stop  offset="1" style="stop-color:#BF7B2A"/>
		</linearGradient>
		
			<rect x="535.9" y="597.81" style="clip-path:url(#SVGID_00000175298544099005325030000014264048710188063422_);fill:url(#SVGID_00000106114411202528796690000002653954608336613529_);" width="32.22" height="34.17"/>
	</g>
	<g>
		<defs>
			<polygon id="SVGID_00000079459963978226608120000000390113532766366139_" points="576.23,597.81 576.23,631.98 600.39,631.98 
				600.39,628.86 579.84,628.86 579.84,616.17 597.51,616.17 597.51,613.09 579.84,613.09 579.84,600.93 599.66,600.93 
				599.66,597.81 			"/>
		</defs>
		<clipPath id="SVGID_00000181808745125369290460000012111486284030549417_">
			<use xlink:href="#SVGID_00000079459963978226608120000000390113532766366139_"  style="overflow:visible;"/>
		</clipPath>
		
			<linearGradient id="SVGID_00000175281547825995911660000007624837424657348994_" gradientUnits="userSpaceOnUse" x1="7.577353e-06" y1="1080" x2="1" y2="1080" gradientTransform="matrix(24.1648 0 0 -24.1648 576.2288 26712.9141)">
			<stop  offset="0" style="stop-color:#FBD8C7"/>
			<stop  offset="1" style="stop-color:#BF7B2A"/>
		</linearGradient>
		
			<rect x="576.23" y="597.81" style="clip-path:url(#SVGID_00000181808745125369290460000012111486284030549417_);fill:url(#SVGID_00000175281547825995911660000007624837424657348994_);" width="24.16" height="34.17"/>
	</g>
	<g>
		<defs>
			<polygon id="SVGID_00000148625752740309765970000002294135352094201530_" points="633.88,597.81 633.88,625.53 611.87,597.81 
				608.89,597.81 608.89,631.98 612.5,631.98 612.5,604.27 634.47,631.98 637.45,631.98 637.45,597.81 			"/>
		</defs>
		<clipPath id="SVGID_00000097482244753133836660000017497793382404467612_">
			<use xlink:href="#SVGID_00000148625752740309765970000002294135352094201530_"  style="overflow:visible;"/>
		</clipPath>
		
			<linearGradient id="SVGID_00000000214238068280728850000011703577631810794889_" gradientUnits="userSpaceOnUse" x1="1.495984e-05" y1="1080" x2="1" y2="1080" gradientTransform="matrix(28.5595 0 0 -28.5595 608.8875 31459.1992)">
			<stop  offset="0" style="stop-color:#FBD8C7"/>
			<stop  offset="1" style="stop-color:#BF7B2A"/>
		</linearGradient>
		
			<rect x="608.89" y="597.81" style="clip-path:url(#SVGID_00000097482244753133836660000017497793382404467612_);fill:url(#SVGID_00000000214238068280728850000011703577631810794889_);" width="28.56" height="34.17"/>
	</g>
</g>
</svg>
